<svg id="svg" version="1.1" xmlns="http://www.w3.org/2000/svg" xmlns:xlink="http://www.w3.org/1999/xlink" width="400" height="400" viewBox="0, 0, 400,400"><g id="svgg"><path id="path0" d="M166.196 23.607 C 166.058 23.830,165.790 23.917,165.600 23.800 C 165.410 23.683,165.147 23.762,165.015 23.976 C 164.883 24.190,164.540 24.275,164.254 24.165 C 163.968 24.055,163.733 24.235,163.733 24.565 C 163.733 24.895,163.871 25.080,164.039 24.976 C 164.207 24.872,164.475 24.998,164.634 25.255 C 164.807 25.535,164.751 25.617,164.494 25.458 C 164.258 25.312,163.791 25.466,163.457 25.800 C 162.913 26.344,162.847 26.334,162.830 25.704 C 162.787 24.151,162.647 23.693,162.233 23.756 C 161.497 23.869,160.800 24.425,160.800 24.900 C 160.800 25.149,161.046 25.016,161.347 24.604 C 161.881 23.875,161.905 23.875,162.293 24.628 C 162.767 25.546,162.513 26.517,161.898 26.137 C 161.622 25.966,161.557 26.111,161.719 26.534 C 161.926 27.074,161.720 27.200,160.631 27.200 C 159.213 27.200,158.500 28.353,159.043 29.768 C 159.198 30.171,159.068 30.400,158.686 30.400 C 158.356 30.400,157.982 30.670,157.855 31.000 C 157.593 31.684,156.800 31.816,156.800 31.176 C 156.800 30.943,156.980 30.864,157.200 31.000 C 157.420 31.136,157.600 31.057,157.600 30.824 C 157.600 30.591,157.362 30.400,157.072 30.400 C 156.647 30.400,156.525 32.928,156.447 43.291 C 156.394 50.381,156.311 56.222,156.262 56.271 C 156.213 56.320,146.774 56.389,135.286 56.424 C 123.799 56.459,114.400 56.603,114.400 56.744 C 114.400 56.885,113.950 57.026,113.400 57.058 C 112.850 57.089,112.400 56.932,112.400 56.709 C 112.400 56.485,112.095 56.549,111.723 56.851 C 111.236 57.246,111.132 57.257,111.354 56.889 C 111.523 56.608,110.892 56.810,109.952 57.338 C 109.012 57.866,107.921 58.897,107.529 59.629 C 107.136 60.361,106.517 61.127,106.153 61.331 C 105.643 61.616,105.567 61.575,105.822 61.151 C 106.097 60.694,106.044 60.688,105.516 61.117 C 105.037 61.505,104.838 61.515,104.720 61.159 C 104.598 60.795,104.358 60.794,103.681 61.157 C 102.675 61.695,102.522 62.267,103.382 62.267 C 103.703 62.267,103.880 62.129,103.776 61.961 C 103.672 61.793,103.770 61.542,103.993 61.404 C 104.217 61.266,104.400 61.439,104.400 61.789 C 104.400 62.139,103.995 62.589,103.500 62.788 C 103.005 62.987,102.757 63.161,102.949 63.175 C 103.141 63.189,103.076 63.468,102.804 63.795 C 102.533 64.122,102.415 64.662,102.543 64.995 C 102.699 65.401,102.531 65.600,102.032 65.600 C 100.464 65.600,97.859 69.008,98.914 69.679 C 99.243 69.888,99.158 69.990,98.651 69.994 C 98.087 69.998,98.007 70.127,98.328 70.513 C 98.589 70.827,98.616 71.251,98.398 71.603 C 98.171 71.970,98.216 72.289,98.521 72.483 C 98.890 72.718,98.890 72.789,98.523 72.794 C 98.158 72.799,98.039 83.538,98.012 119.000 L 97.978 165.200 199.995 165.200 L 302.012 165.200 301.994 117.829 C 301.979 80.959,301.867 70.415,301.488 70.261 C 301.147 70.123,301.140 70.054,301.463 70.032 C 302.781 69.942,300.296 65.600,298.926 65.600 C 298.623 65.600,298.257 65.285,298.112 64.900 C 297.968 64.515,297.568 63.981,297.225 63.713 C 296.805 63.386,296.764 63.221,297.100 63.213 C 297.375 63.206,297.600 63.009,297.600 62.776 C 297.600 62.543,297.420 62.464,297.200 62.600 C 296.980 62.736,296.778 62.657,296.750 62.424 C 296.723 62.191,296.678 61.790,296.650 61.533 C 296.591 60.987,295.600 60.565,295.600 61.087 C 295.600 61.281,295.825 61.667,296.100 61.944 C 296.501 62.347,296.467 62.397,295.931 62.193 C 295.563 62.053,295.153 61.654,295.020 61.308 C 294.813 60.767,294.708 60.758,294.289 61.243 C 294.020 61.555,293.839 61.739,293.886 61.652 C 293.933 61.566,293.708 61.119,293.386 60.658 C 293.064 60.198,292.794 59.547,292.787 59.211 C 292.770 58.343,290.891 57.083,289.973 57.323 C 289.548 57.434,289.083 57.334,288.939 57.101 C 288.773 56.833,288.870 56.796,289.200 57.000 C 289.554 57.219,289.627 57.168,289.427 56.843 C 289.126 56.356,287.265 56.466,286.363 57.023 C 286.066 57.207,285.980 57.156,286.142 56.894 C 286.329 56.591,280.163 56.451,265.121 56.417 C 253.415 56.391,243.787 56.320,243.727 56.260 C 243.667 56.200,243.605 50.659,243.589 43.947 C 243.560 32.054,243.538 31.725,242.718 31.022 C 241.899 30.321,241.897 30.290,242.638 29.892 C 243.057 29.666,243.449 29.444,243.509 29.398 C 243.801 29.175,243.069 28.034,242.758 28.226 C 242.561 28.348,242.400 28.257,242.400 28.024 C 242.400 27.791,242.218 27.600,241.997 27.600 C 241.753 27.600,241.785 27.907,242.077 28.374 C 242.343 28.800,242.732 29.042,242.942 28.912 C 243.152 28.783,243.193 28.887,243.034 29.145 C 242.875 29.402,242.586 29.515,242.392 29.395 C 242.199 29.276,241.842 29.548,241.600 30.000 C 241.358 30.452,240.964 30.702,240.726 30.554 C 240.452 30.385,240.627 30.032,241.200 29.600 C 241.804 29.144,241.957 28.820,241.654 28.634 C 241.404 28.479,241.200 28.513,241.200 28.710 C 241.200 28.906,240.924 29.067,240.587 29.067 C 240.165 29.067,240.102 28.938,240.387 28.653 C 241.034 28.006,240.871 27.197,240.100 27.232 C 239.678 27.251,239.599 27.344,239.902 27.466 C 240.468 27.694,240.183 28.400,239.525 28.400 C 239.249 28.400,239.188 27.800,239.355 26.700 C 239.535 25.506,239.492 25.179,239.212 25.600 C 238.920 26.038,238.811 26.058,238.806 25.676 C 238.803 25.388,238.575 25.267,238.300 25.406 C 238.025 25.545,238.115 25.401,238.500 25.086 C 239.292 24.436,239.430 23.600,238.744 23.600 C 238.493 23.600,238.030 23.915,237.714 24.300 C 237.399 24.685,237.255 24.775,237.394 24.500 C 237.533 24.225,237.412 23.997,237.124 23.994 C 236.723 23.989,236.732 23.904,237.166 23.630 C 237.501 23.417,223.239 23.257,202.089 23.236 C 178.381 23.213,166.362 23.337,166.196 23.607 M157.577 28.756 C 157.794 29.163,157.858 29.608,157.719 29.747 C 157.580 29.886,157.750 30.000,158.096 30.000 C 158.875 30.000,158.593 28.560,157.751 28.237 C 157.307 28.066,157.269 28.181,157.577 28.756 M99.903 359.100 C 100.421 359.595,101.150 359.989,101.522 359.975 C 101.973 359.958,101.868 359.817,101.208 359.554 C 100.663 359.336,99.934 358.942,99.589 358.679 C 99.243 358.416,99.385 358.605,99.903 359.100 M107.232 366.271 C 107.195 366.809,109.082 368.401,109.754 368.399 C 109.999 368.398,109.635 368.052,108.944 367.631 C 108.254 367.210,107.593 366.626,107.476 366.333 C 107.341 365.994,107.252 365.972,107.232 366.271 " stroke="none" fill="#c4cccc" fill-rule="evenodd"></path><path id="path1" d="M161.314 24.167 C 161.304 24.405,161.155 24.960,160.984 25.400 C 160.615 26.349,160.809 26.173,161.687 24.767 C 162.153 24.019,162.193 23.733,161.832 23.733 C 161.558 23.733,161.325 23.928,161.314 24.167 M98.067 258.900 C 98.104 308.675,98.205 348.734,98.290 347.920 C 98.521 345.723,101.845 344.894,103.050 346.732 C 103.747 347.796,104.800 351.567,104.800 352.999 C 104.800 353.626,105.285 354.330,106.200 355.027 C 106.970 355.614,107.600 356.342,107.600 356.644 C 107.600 356.946,107.960 357.418,108.400 357.693 C 108.840 357.968,109.200 358.430,109.200 358.720 C 109.200 359.010,109.382 359.135,109.605 358.997 C 109.828 358.859,110.732 359.476,111.615 360.368 C 113.209 361.978,113.516 362.116,116.600 362.611 C 117.869 362.814,119.601 363.584,121.114 364.617 C 121.177 364.659,121.061 365.438,120.856 366.347 C 120.590 367.532,120.614 368.017,120.943 368.060 C 121.194 368.093,120.590 368.246,119.600 368.400 C 118.610 368.554,154.880 368.679,200.200 368.677 C 245.520 368.676,281.700 368.551,280.600 368.400 C 279.500 368.249,278.817 368.097,279.083 368.063 C 279.588 367.997,279.579 365.446,279.072 364.939 C 278.578 364.445,281.889 362.799,283.867 362.555 C 286.460 362.235,287.869 361.606,288.348 360.554 C 288.567 360.074,289.478 359.270,290.373 358.767 C 291.268 358.264,292.000 357.557,292.000 357.196 C 292.000 356.483,293.397 355.061,294.466 354.685 C 294.904 354.531,295.285 353.652,295.577 352.125 C 296.064 349.572,296.750 347.128,297.170 346.449 C 297.318 346.209,298.286 345.981,299.320 345.941 C 300.354 345.902,301.213 345.674,301.228 345.435 C 301.244 345.196,301.411 345.360,301.600 345.800 C 301.793 346.250,301.956 307.567,301.972 257.500 L 302.000 168.400 200.000 168.400 L 98.000 168.400 98.067 258.900 M301.344 356.300 C 301.375 356.685,301.167 356.952,300.883 356.894 C 300.490 356.814,300.466 356.977,300.785 357.572 C 301.142 358.239,301.087 358.332,300.415 358.203 C 299.264 357.981,297.533 359.437,298.500 359.813 C 299.375 360.154,300.535 359.742,300.205 359.207 C 300.067 358.985,300.211 358.906,300.532 359.029 C 300.914 359.176,301.254 358.821,301.552 357.965 C 302.092 356.417,302.124 355.600,301.644 355.600 C 301.449 355.600,301.314 355.915,301.344 356.300 M98.309 356.893 C 98.437 357.385,98.834 358.060,99.190 358.393 C 99.546 358.727,99.604 358.843,99.319 358.651 C 99.005 358.440,98.800 358.463,98.800 358.708 C 98.800 359.234,99.933 359.738,101.193 359.773 C 101.958 359.794,102.249 360.075,102.464 361.000 L 102.741 362.200 102.671 361.009 C 102.621 360.179,102.297 359.668,101.600 359.323 C 101.050 359.050,100.600 358.641,100.600 358.413 C 100.600 358.186,100.420 357.990,100.200 357.979 C 99.980 357.967,99.569 357.517,99.287 356.979 C 98.646 355.754,97.996 355.698,98.309 356.893 M297.569 360.300 C 297.553 360.465,297.478 360.915,297.405 361.300 C 297.331 361.685,297.435 362.000,297.635 362.000 C 297.836 362.000,298.000 361.550,298.000 361.000 C 298.000 360.111,297.647 359.537,297.569 360.300 M102.428 362.676 C 102.518 363.715,103.144 364.596,103.172 363.724 C 103.187 363.242,103.020 362.736,102.800 362.600 C 102.580 362.464,102.413 362.498,102.428 362.676 M295.746 364.087 C 295.640 364.259,295.913 364.400,296.353 364.400 C 296.793 364.400,297.257 364.231,297.385 364.024 C 297.513 363.818,297.240 363.677,296.778 363.712 C 296.317 363.746,295.852 363.915,295.746 364.087 M293.052 365.008 C 292.904 365.395,292.606 365.531,292.303 365.349 C 291.965 365.145,291.983 365.271,292.357 365.733 C 292.663 366.110,292.798 366.535,292.657 366.676 C 292.516 366.818,292.400 366.723,292.400 366.467 C 292.400 366.210,292.220 366.000,292.000 366.000 C 291.780 366.000,291.645 366.217,291.700 366.482 C 291.755 366.747,291.575 366.994,291.300 367.032 C 291.025 367.069,290.620 367.123,290.400 367.150 C 290.180 367.178,290.000 367.483,290.000 367.828 C 290.000 368.253,290.291 368.411,290.900 368.318 C 291.395 368.243,291.757 367.967,291.705 367.705 C 291.652 367.443,291.859 367.325,292.165 367.442 C 292.534 367.584,292.880 367.169,293.200 366.201 C 293.669 364.779,293.540 363.737,293.052 365.008 M106.800 365.400 C 106.800 365.730,106.992 366.000,107.227 366.000 C 107.463 366.000,107.547 366.337,107.415 366.753 C 107.149 367.589,107.898 368.072,109.689 368.217 C 110.640 368.294,110.727 368.210,110.375 367.553 C 110.153 367.139,109.878 366.800,109.762 366.800 C 109.647 366.800,109.678 367.003,109.832 367.252 C 110.002 367.526,109.893 367.631,109.556 367.519 C 109.250 367.417,108.992 367.078,108.982 366.767 C 108.972 366.455,108.725 366.252,108.433 366.316 C 108.094 366.391,107.990 366.202,108.146 365.796 C 108.288 365.427,108.224 365.261,107.995 365.403 C 107.778 365.537,107.600 365.457,107.600 365.224 C 107.600 364.991,107.420 364.800,107.200 364.800 C 106.980 364.800,106.800 365.070,106.800 365.400 " stroke="none" fill="#8cc44c" fill-rule="evenodd"></path><path id="path2" d="M98.000 167.900 C 98.000 168.299,118.667 168.400,200.000 168.400 C 267.471 168.400,302.000 168.265,302.000 168.002 C 302.000 167.738,267.403 167.569,200.000 167.502 C 118.613 167.421,98.000 167.501,98.000 167.900 M301.228 345.435 C 301.213 345.674,300.354 345.902,299.320 345.941 C 298.286 345.981,297.318 346.209,297.170 346.449 C 296.750 347.128,296.064 349.572,295.577 352.125 C 295.285 353.652,294.904 354.531,294.466 354.685 C 293.397 355.061,292.000 356.483,292.000 357.196 C 292.000 357.557,291.268 358.264,290.373 358.767 C 289.478 359.270,288.567 360.074,288.348 360.554 C 287.869 361.606,286.460 362.235,283.867 362.555 C 281.880 362.800,278.579 364.446,279.077 364.943 C 279.561 365.428,279.554 367.781,279.067 368.091 C 278.810 368.254,279.252 368.391,280.050 368.394 C 280.848 368.397,282.062 368.512,282.750 368.650 L 284.000 368.900 283.899 366.660 C 283.777 363.955,283.816 363.939,289.800 364.163 C 292.299 364.257,293.462 364.184,292.900 363.969 C 292.405 363.780,292.000 363.519,292.000 363.389 C 292.000 363.259,292.180 363.264,292.400 363.400 C 292.641 363.549,292.800 363.025,292.800 362.086 C 292.800 359.479,294.386 358.698,297.400 359.820 C 298.058 360.065,298.111 360.022,297.700 359.579 C 297.072 358.902,297.046 358.257,297.662 358.638 C 297.961 358.823,298.014 358.747,297.813 358.421 C 297.642 358.144,297.423 356.568,297.327 354.917 C 297.106 351.126,297.622 350.359,300.247 350.581 L 302.000 350.729 301.972 348.664 C 301.948 346.912,301.311 344.148,301.228 345.435 M99.209 346.161 C 98.662 346.405,98.389 346.924,98.367 347.761 C 98.349 348.443,98.253 349.495,98.153 350.100 C 98.004 351.007,98.119 351.200,98.810 351.200 C 99.373 351.200,99.549 351.036,99.347 350.700 C 99.143 350.360,99.263 350.376,99.723 350.749 C 100.125 351.075,100.400 351.125,100.400 350.872 C 100.400 350.392,101.950 350.590,102.500 351.140 C 102.698 351.338,102.801 353.125,102.730 355.113 C 102.658 357.100,102.723 358.650,102.872 358.557 C 103.022 358.463,103.258 358.570,103.396 358.793 C 103.534 359.017,104.193 359.200,104.861 359.200 C 106.828 359.200,107.822 360.294,107.677 362.300 C 107.536 364.246,107.247 364.123,112.065 364.168 C 116.134 364.206,115.974 364.105,116.093 366.702 C 116.180 368.623,116.242 368.731,117.193 368.615 C 117.747 368.547,118.920 368.456,119.800 368.414 C 120.680 368.372,121.196 368.253,120.947 368.151 C 120.627 368.019,120.601 367.482,120.860 366.329 C 121.062 365.430,121.177 364.659,121.114 364.617 C 119.601 363.584,117.869 362.814,116.600 362.611 C 113.516 362.116,113.209 361.978,111.615 360.368 C 110.732 359.476,109.828 358.859,109.605 358.997 C 109.382 359.135,109.200 359.010,109.200 358.720 C 109.200 358.430,108.840 357.968,108.400 357.693 C 107.960 357.418,107.600 356.946,107.600 356.644 C 107.600 356.342,106.970 355.614,106.200 355.027 C 105.285 354.330,104.800 353.626,104.800 352.999 C 104.800 347.996,102.206 344.823,99.209 346.161 " stroke="none" fill="#94c464" fill-rule="evenodd"></path><path id="path3" d="M108.001 58.198 C 106.676 59.609,107.161 59.754,108.525 58.354 C 109.144 57.719,109.490 57.200,109.295 57.200 C 109.099 57.200,108.517 57.649,108.001 58.198 M103.701 61.003 C 103.866 61.186,103.716 61.651,103.366 62.037 C 102.783 62.682,102.788 62.731,103.432 62.636 C 104.245 62.517,104.548 61.328,103.864 60.937 C 103.609 60.791,103.535 60.821,103.701 61.003 M296.608 61.643 C 296.819 62.737,297.049 62.969,297.384 62.427 C 297.529 62.192,297.446 62.000,297.200 62.000 C 296.954 62.000,296.856 61.832,296.983 61.628 C 297.109 61.423,297.040 61.148,296.827 61.017 C 296.609 60.882,296.514 61.154,296.608 61.643 M100.600 65.683 C 99.679 66.211,98.830 67.218,98.815 67.800 C 98.809 68.020,99.208 67.700,99.702 67.088 C 100.196 66.476,101.140 65.817,101.800 65.622 C 102.598 65.387,102.732 65.261,102.200 65.247 C 101.760 65.234,101.040 65.431,100.600 65.683 M98.076 166.700 C 98.303 167.879,302.000 167.979,302.000 166.801 C 302.000 166.002,301.766 166.000,199.971 166.000 C 103.015 166.000,97.948 166.035,98.076 166.700 M99.347 350.700 C 99.552 351.042,99.355 351.202,98.724 351.206 C 97.981 351.211,97.917 351.288,98.400 351.600 C 98.730 351.813,98.805 351.991,98.567 351.994 C 98.328 351.997,98.133 352.270,98.133 352.600 C 98.133 352.930,98.283 353.200,98.467 353.200 C 98.650 353.200,98.800 353.391,98.800 353.624 C 98.800 353.857,98.622 353.937,98.405 353.803 C 98.178 353.663,98.111 353.823,98.247 354.179 C 98.378 354.521,98.691 354.803,98.943 354.806 C 99.224 354.810,99.193 354.943,98.862 355.153 C 98.054 355.666,100.120 358.744,101.623 359.268 C 102.588 359.604,102.801 359.906,102.805 360.939 C 102.817 363.489,103.128 363.915,105.191 364.199 C 106.816 364.422,107.250 364.681,108.053 365.905 C 108.914 367.217,110.568 368.443,109.800 367.200 C 109.595 366.868,109.679 366.760,110.044 366.881 C 110.350 366.983,110.600 367.319,110.600 367.628 C 110.600 367.937,110.936 368.254,111.347 368.333 C 111.886 368.437,112.004 368.326,111.771 367.938 C 111.518 367.520,111.575 367.499,112.023 367.844 C 113.064 368.644,115.200 368.861,115.200 368.166 C 115.200 367.829,115.383 367.666,115.607 367.804 C 115.830 367.942,115.892 368.251,115.745 368.489 C 115.597 368.728,115.655 368.813,115.874 368.678 C 116.246 368.448,116.143 364.814,115.753 364.422 C 115.173 363.836,111.060 364.076,110.454 364.731 C 110.094 365.120,109.980 365.173,110.200 364.849 C 110.520 364.378,110.434 364.304,109.768 364.475 C 108.382 364.832,107.530 363.882,107.674 362.137 C 107.823 360.321,106.770 359.200,104.917 359.200 C 104.281 359.200,103.564 359.004,103.325 358.765 C 103.013 358.453,102.815 358.453,102.622 358.764 C 102.436 359.065,102.010 359.019,101.226 358.613 C 100.174 358.069,99.359 356.907,99.754 356.513 C 99.849 356.418,100.037 356.686,100.171 357.109 C 100.427 357.915,102.146 358.920,102.560 358.507 C 102.968 358.098,102.824 351.262,102.402 351.001 C 101.638 350.529,100.400 350.449,100.400 350.872 C 100.400 351.125,100.125 351.075,99.723 350.749 C 99.263 350.376,99.143 350.360,99.347 350.700 M297.846 351.149 C 297.314 351.737,297.126 357.409,297.568 359.555 C 297.586 359.640,298.072 359.237,298.648 358.661 C 299.225 358.084,299.883 357.727,300.110 357.868 C 300.340 358.010,300.404 357.930,300.255 357.689 C 300.107 357.450,300.348 357.001,300.791 356.691 C 301.233 356.382,301.476 356.009,301.331 355.864 C 301.186 355.719,301.236 355.600,301.443 355.600 C 301.971 355.600,302.042 352.333,301.527 351.712 C 301.219 351.341,301.244 351.200,301.618 351.200 C 302.795 351.200,301.487 350.667,300.047 350.560 C 298.952 350.478,298.294 350.654,297.846 351.149 M299.649 356.419 C 300.568 355.972,300.573 355.978,299.800 356.595 C 299.360 356.947,299.045 357.317,299.100 357.417 C 299.155 357.518,299.065 357.627,298.900 357.660 C 298.735 357.693,298.365 358.008,298.078 358.360 C 297.631 358.907,297.617 358.874,297.976 358.129 C 298.208 357.650,298.291 356.930,298.161 356.529 C 297.984 355.984,298.022 355.936,298.311 356.341 C 298.617 356.769,298.899 356.785,299.649 356.419 M293.482 359.910 C 293.096 360.336,292.800 361.311,292.800 362.155 C 292.800 363.181,292.656 363.558,292.338 363.362 C 292.052 363.185,291.985 363.252,292.162 363.538 C 292.340 363.827,292.156 364.000,291.673 364.000 C 291.247 364.000,290.674 364.270,290.400 364.600 C 289.871 365.237,289.001 365.445,289.372 364.845 C 289.789 364.170,286.432 363.734,284.600 364.226 C 283.965 364.396,283.815 364.745,283.871 365.920 C 283.910 366.734,283.955 367.702,283.971 368.071 C 283.998 368.705,285.576 368.785,289.100 368.331 C 289.597 368.267,289.757 367.641,289.621 366.300 C 289.582 365.915,289.730 365.600,289.951 365.600 C 290.570 365.600,290.866 366.311,290.322 366.493 C 289.947 366.618,289.947 366.720,290.320 366.950 C 290.584 367.114,290.800 367.046,290.800 366.800 C 290.800 366.554,291.025 366.482,291.300 366.641 C 291.575 366.799,291.665 366.779,291.499 366.597 C 291.334 366.414,291.497 365.935,291.861 365.532 C 292.226 365.130,292.335 364.800,292.105 364.800 C 291.874 364.800,291.570 365.100,291.430 365.467 C 291.235 365.975,291.063 366.023,290.707 365.667 C 289.892 364.852,291.030 364.244,293.296 364.283 C 294.453 364.302,295.653 364.112,295.961 363.859 C 296.270 363.607,296.630 363.445,296.761 363.500 C 296.893 363.555,297.022 363.420,297.050 363.200 C 297.078 362.980,297.138 362.755,297.185 362.700 C 297.505 362.322,297.458 359.960,297.126 359.754 C 296.063 359.097,294.143 359.179,293.482 359.910 " stroke="none" fill="#9cc47c" fill-rule="evenodd"></path><path id="path4" d="M163.374 23.930 C 163.168 24.079,162.963 24.700,162.918 25.311 C 162.844 26.310,162.897 26.360,163.450 25.807 C 163.788 25.469,164.258 25.312,164.494 25.458 C 164.751 25.617,164.807 25.535,164.634 25.255 C 164.475 24.998,164.207 24.872,164.039 24.976 C 163.871 25.080,163.733 24.895,163.733 24.565 C 163.733 24.235,163.968 24.055,164.254 24.165 C 164.540 24.275,164.858 24.230,164.959 24.066 C 165.195 23.684,163.873 23.572,163.374 23.930 M240.455 28.533 C 240.121 28.936,240.154 29.067,240.589 29.067 C 240.906 29.067,241.072 28.917,240.959 28.733 C 240.845 28.550,240.933 28.400,241.153 28.400 C 241.966 28.400,241.996 29.174,241.200 29.600 C 240.748 29.842,240.500 30.238,240.650 30.481 C 240.829 30.770,241.117 30.660,241.489 30.161 C 241.801 29.742,242.264 29.458,242.517 29.530 C 242.770 29.601,242.640 29.286,242.227 28.830 C 241.348 27.859,241.056 27.810,240.455 28.533 M158.537 29.267 C 158.660 29.653,158.489 30.034,158.130 30.171 C 157.670 30.348,157.579 30.232,157.777 29.717 C 157.923 29.336,157.898 29.169,157.721 29.345 C 157.545 29.522,157.391 30.116,157.381 30.667 C 157.365 31.521,157.429 31.574,157.825 31.033 C 158.080 30.685,158.493 30.400,158.744 30.400 C 159.312 30.400,159.317 29.979,158.756 29.200 C 158.386 28.685,158.355 28.695,158.537 29.267 M98.000 165.600 C 98.000 165.866,132.267 166.000,200.000 166.000 C 267.733 166.000,302.000 165.866,302.000 165.600 C 302.000 165.334,267.733 165.200,200.000 165.200 C 132.267 165.200,98.000 165.334,98.000 165.600 M298.152 357.048 C 298.226 358.408,298.662 359.205,299.324 359.188 C 299.586 359.181,299.485 358.992,299.100 358.768 C 298.715 358.544,298.400 358.167,298.400 357.931 C 298.400 357.655,298.579 357.635,298.900 357.876 C 299.611 358.407,300.368 358.297,300.808 357.600 C 301.407 356.654,301.263 356.280,300.568 356.975 C 300.220 357.323,299.759 357.498,299.544 357.365 C 299.321 357.228,299.464 356.871,299.876 356.540 C 300.536 356.007,300.516 355.997,299.649 356.419 C 298.915 356.777,298.629 356.770,298.393 356.389 C 298.215 356.101,298.115 356.376,298.152 357.048 M289.318 364.933 C 289.171 365.170,289.330 365.236,289.701 365.093 C 290.088 364.945,290.435 365.112,290.595 365.525 C 290.834 366.140,290.907 366.132,291.424 365.429 C 291.736 365.005,292.115 364.782,292.267 364.933 C 292.418 365.085,292.195 365.464,291.771 365.777 C 291.293 366.130,290.856 366.205,290.620 365.973 C 289.943 365.309,289.653 365.574,289.688 366.824 C 289.710 367.585,289.841 367.857,290.035 367.543 C 290.207 367.265,290.244 366.871,290.118 366.667 C 289.992 366.463,290.139 366.387,290.444 366.498 C 290.750 366.609,290.945 366.933,290.877 367.218 C 290.778 367.637,290.875 367.635,291.387 367.211 C 291.735 366.922,291.928 366.594,291.816 366.483 C 291.704 366.371,291.907 366.064,292.267 365.800 C 292.628 365.537,292.798 365.120,292.645 364.873 C 292.307 364.327,289.663 364.374,289.318 364.933 " stroke="none" fill="#c8c8b0" fill-rule="evenodd"></path></g></svg>