<svg id="svg" version="1.1" xmlns="http://www.w3.org/2000/svg" xmlns:xlink="http://www.w3.org/1999/xlink" width="400" height="400" viewBox="0, 0, 400,400"><g id="svgg"><path id="path0" d="M218.557 118.629 C 218.411 119.211,218.495 119.855,218.749 120.109 C 219.084 120.444,219.200 120.178,219.200 119.080 C 219.200 117.356,218.925 117.164,218.557 118.629 M214.180 123.759 C 213.829 125.446,212.147 128.293,211.204 128.798 C 210.779 129.025,210.140 129.883,209.782 130.705 C 208.610 133.400,208.094 134.195,207.263 134.585 C 206.813 134.797,206.285 135.337,206.091 135.785 C 204.898 138.543,203.754 140.538,203.031 141.125 C 202.574 141.496,201.660 142.880,201.000 144.200 C 200.338 145.525,199.402 146.775,198.911 146.990 C 198.422 147.205,197.837 147.880,197.611 148.490 C 197.385 149.101,196.998 150.141,196.751 150.802 C 196.504 151.463,195.726 152.509,195.024 153.126 C 194.321 153.743,193.244 155.334,192.631 156.662 C 191.977 158.078,191.078 159.336,190.456 159.703 C 189.774 160.106,189.212 160.950,188.883 162.066 C 188.599 163.027,187.637 164.595,186.728 165.580 C 185.825 166.558,184.670 168.299,184.162 169.448 C 183.573 170.779,182.844 171.731,182.155 172.069 C 181.392 172.444,180.920 173.130,180.553 174.400 C 180.254 175.434,179.332 176.966,178.386 178.000 C 176.610 179.942,175.858 181.190,175.457 182.866 C 175.297 183.534,174.748 184.132,173.988 184.466 C 173.096 184.859,172.653 185.424,172.316 186.600 C 172.064 187.480,171.087 189.120,170.146 190.244 C 169.204 191.368,168.224 192.808,167.967 193.444 C 166.962 195.933,166.653 196.364,165.541 196.824 C 164.820 197.123,164.303 197.694,164.157 198.351 C 163.747 200.202,162.888 201.769,161.612 202.990 C 160.395 204.154,159.213 206.090,159.187 206.961 C 159.168 207.579,157.997 208.874,156.700 209.709 C 156.043 210.133,155.599 210.777,155.599 211.309 C 155.598 211.799,155.249 212.770,154.824 213.467 C 153.655 215.385,153.577 215.377,175.289 215.598 L 195.179 215.800 196.089 216.715 C 197.976 218.611,196.642 230.469,194.270 232.881 C 193.658 233.504,192.794 238.902,192.797 242.080 C 192.799 243.334,192.631 245.224,192.425 246.280 C 192.218 247.336,191.937 249.054,191.801 250.098 C 191.649 251.254,191.164 252.457,190.560 253.175 C 189.561 254.362,188.413 261.131,188.403 265.894 C 188.399 268.163,187.727 270.967,186.604 273.400 C 185.174 276.500,184.801 277.935,184.792 280.360 C 184.788 281.592,184.622 283.770,184.423 285.200 C 184.225 286.630,184.003 289.240,183.931 291.000 L 183.800 294.200 184.900 294.327 C 185.791 294.429,186.000 294.294,186.000 293.613 C 186.000 292.383,187.818 289.001,188.965 288.099 C 189.510 287.670,190.417 286.312,190.980 285.080 C 191.617 283.689,192.400 282.644,193.051 282.321 C 193.742 281.977,194.300 281.189,194.695 280.000 C 195.356 278.011,196.546 276.147,197.792 275.148 C 198.239 274.789,198.851 273.799,199.152 272.948 C 199.796 271.123,200.672 270.034,201.861 269.579 C 202.463 269.349,202.802 268.769,202.991 267.652 C 203.177 266.551,203.859 265.371,205.188 263.853 C 206.247 262.642,207.423 260.844,207.800 259.857 C 208.283 258.591,208.826 257.921,209.641 257.583 C 210.493 257.230,210.921 256.670,211.271 255.452 C 211.754 253.769,212.859 251.880,213.991 250.800 C 214.928 249.907,216.000 248.110,216.000 247.433 C 216.000 247.106,216.705 246.271,217.567 245.578 C 218.666 244.696,219.330 243.720,219.789 242.319 C 220.148 241.219,221.108 239.602,221.921 238.726 C 222.735 237.851,223.625 236.699,223.900 236.167 C 224.175 235.635,224.658 234.705,224.973 234.100 C 225.288 233.495,225.866 232.820,226.256 232.600 C 227.437 231.935,228.000 231.292,228.000 230.609 C 228.000 229.659,228.954 227.970,230.611 225.987 C 231.414 225.026,232.346 223.551,232.683 222.710 C 233.019 221.869,233.871 220.690,234.575 220.090 C 235.279 219.491,236.169 218.153,236.553 217.119 C 236.937 216.084,237.825 214.729,238.526 214.108 C 239.777 212.998,240.200 212.315,241.266 209.683 C 241.560 208.959,242.359 208.035,243.042 207.631 C 243.939 207.100,244.437 206.374,244.838 205.017 C 245.143 203.983,245.628 202.943,245.916 202.704 C 247.408 201.465,243.762 201.212,224.355 201.206 L 205.309 201.200 204.255 200.145 C 203.311 199.202,203.201 198.792,203.208 196.245 C 203.220 191.891,204.381 186.180,205.615 184.400 C 206.554 183.047,207.195 180.591,207.198 178.338 C 207.205 171.927,208.612 164.980,210.383 162.600 C 210.843 161.982,211.600 156.713,211.601 154.123 C 211.601 150.492,212.678 145.232,213.959 142.600 C 215.171 140.110,215.600 137.176,216.250 126.957 L 216.507 122.914 215.472 122.716 C 214.576 122.544,214.403 122.684,214.180 123.759 M181.026 297.085 C 180.665 298.724,181.350 300.249,181.743 298.683 C 181.884 298.124,181.843 297.246,181.653 296.733 C 181.320 295.834,181.298 295.846,181.026 297.085 " stroke="none" fill="#fbeb3c" fill-rule="evenodd"></path><path id="path1" d="M156.673 31.860 C 156.523 32.010,156.400 35.703,156.400 40.067 L 156.400 48.000 131.900 48.041 C 118.425 48.063,106.815 48.049,106.100 48.010 C 105.349 47.969,104.800 48.132,104.800 48.396 C 104.800 48.665,104.484 48.754,104.034 48.611 C 103.075 48.306,102.764 48.798,102.610 50.862 C 102.491 52.455,102.455 52.491,100.862 52.610 C 98.798 52.764,98.306 53.075,98.611 54.034 C 98.746 54.461,98.666 54.800,98.428 54.800 C 98.127 54.800,98.002 99.916,98.002 208.000 C 98.002 330.118,98.103 361.201,98.501 361.206 C 98.839 361.210,98.811 361.332,98.415 361.583 C 97.271 362.306,98.392 364.189,100.012 364.266 C 100.775 364.302,101.670 364.347,102.000 364.366 C 102.365 364.387,102.621 364.830,102.654 365.500 C 102.748 367.411,103.044 368.127,103.833 368.356 C 104.255 368.479,147.836 368.584,200.680 368.590 C 299.383 368.600,299.427 368.600,297.197 367.189 C 296.699 366.875,296.723 366.811,297.347 366.806 C 297.876 366.802,298.037 366.584,297.899 366.057 C 297.609 364.948,298.270 364.041,299.193 364.282 C 299.630 364.396,300.438 364.377,300.990 364.238 L 301.992 363.987 301.998 209.571 C 302.002 97.623,301.882 54.928,301.562 54.329 C 301.242 53.732,301.242 53.579,301.560 53.775 C 301.802 53.925,302.000 53.857,302.000 53.624 C 302.000 53.391,301.820 53.178,301.600 53.150 C 301.380 53.123,301.065 53.058,300.900 53.006 C 300.735 52.954,300.015 52.774,299.300 52.606 C 297.983 52.296,297.856 52.095,297.981 50.525 C 298.186 47.953,299.191 48.043,270.144 48.011 C 255.681 47.995,243.803 47.936,243.747 47.881 C 243.692 47.825,243.613 44.145,243.571 39.703 L 243.496 31.627 200.221 31.607 C 176.420 31.596,156.823 31.710,156.673 31.860 M223.899 109.842 C 224.413 110.356,224.447 110.633,224.070 111.236 C 223.812 111.650,223.600 112.247,223.600 112.561 C 223.600 112.876,223.440 113.193,223.245 113.267 C 223.050 113.340,222.674 116.910,222.411 121.200 C 221.887 129.721,221.274 132.690,219.715 134.249 C 218.753 135.211,218.676 135.601,218.356 141.134 C 217.778 151.131,217.247 153.676,215.438 155.099 C 214.448 155.877,214.409 156.085,214.194 161.651 C 213.828 171.127,213.059 174.813,211.174 176.133 C 210.425 176.658,210.307 177.322,209.976 182.858 C 209.394 192.577,208.627 196.186,206.941 197.129 C 205.284 198.056,207.776 198.209,227.733 198.400 C 248.530 198.599,248.604 198.603,249.852 199.493 C 252.039 201.053,251.746 204.495,249.336 205.557 C 248.331 206.000,247.973 206.490,247.585 207.957 C 246.992 210.197,245.488 212.653,244.515 212.968 C 243.760 213.212,242.800 214.914,242.800 216.010 C 242.800 216.724,241.397 218.141,240.312 218.523 C 239.933 218.657,239.514 219.268,239.379 219.883 C 238.894 222.101,238.259 223.265,236.545 225.080 C 235.585 226.096,234.800 227.178,234.800 227.483 C 234.800 228.646,233.578 230.329,232.450 230.723 C 231.305 231.122,231.146 231.384,230.623 233.728 C 230.272 235.299,228.772 237.483,227.711 237.967 C 227.222 238.190,226.702 238.874,226.555 239.486 C 226.075 241.487,225.259 242.678,224.019 243.192 C 223.204 243.530,222.800 243.977,222.800 244.543 C 222.800 245.881,220.710 249.658,219.720 250.109 C 219.187 250.352,218.544 251.270,218.143 252.359 C 217.318 254.596,216.631 255.455,215.424 255.758 C 214.738 255.930,214.446 256.364,214.265 257.477 C 213.920 259.604,212.463 262.149,211.163 262.895 C 210.416 263.324,209.903 264.073,209.609 265.166 C 209.162 266.828,207.862 268.400,206.936 268.400 C 206.653 268.400,206.138 269.378,205.791 270.573 C 205.362 272.047,204.631 273.290,203.517 274.438 C 202.614 275.368,201.581 276.953,201.221 277.959 C 200.770 279.219,200.198 279.977,199.383 280.394 C 197.886 281.161,197.698 281.437,197.377 283.335 C 197.197 284.404,196.604 285.402,195.472 286.543 C 193.639 288.391,192.800 289.732,192.800 290.817 C 192.800 291.585,191.251 293.003,189.967 293.410 C 189.436 293.579,189.200 294.022,189.200 294.853 C 189.200 295.993,188.723 297.242,187.931 298.175 C 187.732 298.409,186.969 299.273,186.236 300.094 C 185.502 300.916,184.796 302.118,184.667 302.764 C 184.351 304.347,182.952 305.566,181.118 305.860 C 180.286 305.993,179.217 306.439,178.742 306.851 C 176.836 308.504,175.255 307.041,176.404 304.688 C 177.383 302.684,178.000 298.507,178.000 293.890 C 178.000 287.999,178.815 284.466,180.650 282.400 C 181.452 281.497,181.585 280.699,182.014 274.200 C 182.538 266.259,183.197 263.167,184.677 261.686 C 185.591 260.773,185.684 260.294,186.013 254.852 C 186.607 245.032,187.146 242.438,188.944 240.739 C 189.889 239.847,189.961 239.450,190.393 232.800 C 190.904 224.942,191.666 221.243,193.063 219.846 L 194.004 218.905 192.502 218.657 C 191.676 218.521,182.323 218.407,171.719 218.404 C 151.530 218.400,150.963 218.354,149.509 216.623 C 148.148 215.002,149.043 212.091,151.196 211.138 C 152.429 210.592,152.537 210.411,153.006 208.083 C 153.164 207.297,154.065 205.924,155.236 204.684 C 156.316 203.539,157.200 202.383,157.200 202.115 C 157.200 200.807,158.586 198.823,159.666 198.586 C 160.473 198.408,160.800 198.094,160.800 197.495 C 160.800 195.720,163.337 191.600,164.429 191.600 C 164.598 191.600,165.038 190.655,165.407 189.500 C 166.124 187.259,167.216 186.000,168.444 186.000 C 168.896 186.000,169.201 185.719,169.202 185.300 C 169.208 183.408,170.191 181.296,171.763 179.800 C 172.705 178.903,173.750 177.381,174.141 176.336 C 174.663 174.942,175.180 174.311,176.196 173.829 C 177.363 173.275,177.592 172.927,177.829 171.344 C 178.041 169.935,178.499 169.094,179.786 167.750 C 181.414 166.051,181.804 165.438,182.743 163.097 C 182.992 162.475,183.800 161.701,184.593 161.323 C 185.758 160.767,186.000 160.437,186.000 159.404 C 186.000 157.959,188.106 154.402,189.118 154.137 C 189.828 153.952,190.790 152.296,190.813 151.220 C 190.831 150.389,192.190 148.800,192.884 148.800 C 193.736 148.800,194.400 147.947,194.400 146.855 C 194.400 145.615,195.970 142.949,197.574 141.466 C 198.248 140.842,198.800 140.069,198.800 139.746 C 198.800 138.499,200.108 136.714,201.427 136.163 C 202.455 135.733,202.800 135.346,202.800 134.621 C 202.800 132.989,203.511 131.652,205.396 129.741 C 206.388 128.734,207.200 127.652,207.200 127.335 C 207.200 126.202,208.402 124.466,209.534 123.965 C 210.436 123.566,210.794 123.032,211.187 121.502 C 211.526 120.178,212.236 118.967,213.388 117.747 C 214.324 116.757,215.334 115.193,215.633 114.273 C 216.368 112.008,217.906 110.800,220.056 110.800 C 220.506 110.800,221.331 110.440,221.891 110.000 C 223.115 109.037,223.096 109.038,223.899 109.842 " stroke="none" fill="#8cc44c" fill-rule="evenodd"></path><path id="path2" d="M218.016 113.088 C 217.231 113.972,215.200 117.919,215.200 118.560 C 215.200 118.841,214.747 119.278,214.194 119.530 C 213.549 119.824,212.744 120.918,211.950 122.581 C 211.269 124.007,210.389 125.276,209.996 125.401 C 209.363 125.602,207.200 129.451,207.200 130.375 C 207.200 130.570,206.642 131.198,205.960 131.772 C 205.278 132.346,204.289 133.710,203.761 134.804 C 203.234 135.897,202.269 137.267,201.618 137.847 C 200.967 138.427,199.861 140.093,199.159 141.551 C 198.457 143.008,197.539 144.443,197.118 144.739 C 196.697 145.036,195.885 146.265,195.315 147.470 C 194.744 148.676,193.848 149.943,193.324 150.287 C 192.800 150.630,191.801 152.101,191.105 153.556 C 190.408 155.010,189.337 156.675,188.724 157.256 C 188.111 157.837,187.265 159.115,186.845 160.096 C 186.424 161.076,185.613 162.246,185.042 162.696 C 183.991 163.522,181.600 167.633,181.600 168.614 C 181.600 168.906,181.256 169.255,180.836 169.389 C 179.938 169.673,179.035 170.959,178.659 172.486 C 178.402 173.531,176.679 175.600,176.067 175.600 C 175.904 175.600,175.160 176.937,174.413 178.571 C 173.667 180.205,172.672 181.748,172.201 182.000 C 171.730 182.251,170.834 183.533,170.210 184.848 C 169.585 186.163,168.757 187.409,168.369 187.617 C 167.631 188.012,165.200 192.175,165.200 193.044 C 165.200 193.320,164.692 193.907,164.071 194.349 C 163.451 194.791,162.599 195.928,162.178 196.876 C 161.758 197.824,160.735 199.261,159.907 200.069 C 159.078 200.876,158.400 201.651,158.400 201.791 C 158.400 202.584,156.577 205.838,155.522 206.927 C 154.844 207.627,153.877 209.121,153.373 210.246 C 152.870 211.371,152.185 212.397,151.852 212.525 C 150.955 212.869,149.946 214.595,150.222 215.313 C 150.977 217.281,152.051 217.387,173.486 217.600 C 197.177 217.836,196.303 217.551,193.464 224.123 C 192.240 226.958,192.063 227.572,191.818 229.839 C 190.977 237.625,190.722 239.621,190.317 241.600 C 190.069 242.810,189.736 243.980,189.576 244.200 C 188.527 245.651,186.800 253.960,186.800 257.565 C 186.799 259.541,185.758 264.358,184.876 266.460 C 183.919 268.743,183.336 271.660,182.810 276.800 C 182.357 281.227,181.653 285.130,181.188 285.800 C 181.035 286.020,180.623 287.190,180.272 288.400 C 176.712 300.666,179.796 309.802,184.308 300.356 C 185.002 298.901,186.001 297.429,186.527 297.085 C 187.053 296.740,187.891 295.455,188.388 294.229 C 188.886 293.003,189.424 292.000,189.585 292.000 C 190.293 292.000,191.517 290.446,192.228 288.645 C 192.653 287.569,193.768 285.879,194.707 284.888 C 195.645 283.897,196.527 282.617,196.665 282.043 C 196.804 281.469,197.612 280.238,198.460 279.307 C 199.309 278.376,200.492 276.576,201.089 275.307 C 201.686 274.038,202.604 272.658,203.128 272.239 C 203.652 271.821,204.427 270.671,204.850 269.684 C 205.273 268.696,206.141 267.419,206.780 266.844 C 207.418 266.270,208.594 264.549,209.394 263.020 C 210.195 261.492,211.174 260.013,211.571 259.736 C 211.967 259.458,212.746 258.278,213.301 257.115 C 213.855 255.952,214.774 254.601,215.342 254.114 C 215.910 253.626,216.945 252.096,217.643 250.714 C 218.340 249.331,219.321 247.840,219.823 247.400 C 220.324 246.960,221.217 245.571,221.807 244.314 C 222.397 243.057,223.202 241.926,223.596 241.801 C 223.989 241.676,224.887 240.370,225.590 238.898 C 226.293 237.426,227.385 235.728,228.016 235.124 C 228.647 234.521,229.604 233.076,230.142 231.914 C 230.680 230.751,231.467 229.593,231.889 229.341 C 232.312 229.088,233.297 227.648,234.078 226.141 C 234.859 224.633,236.151 222.712,236.949 221.872 C 237.747 221.031,238.400 220.003,238.400 219.588 C 238.400 219.172,239.075 218.141,239.900 217.297 C 240.725 216.453,241.850 214.781,242.400 213.583 C 242.950 212.385,244.143 210.635,245.052 209.694 C 245.960 208.753,246.806 207.469,246.932 206.841 C 247.058 206.212,247.911 204.983,248.829 204.110 C 250.479 202.540,250.490 202.510,249.823 201.491 C 248.530 199.517,247.995 199.465,226.200 199.197 C 214.980 199.058,205.732 198.913,205.649 198.873 C 205.206 198.660,206.008 194.705,206.881 192.800 C 207.853 190.676,209.209 183.202,209.203 180.000 C 209.199 178.257,210.154 173.607,210.740 172.512 C 212.019 170.122,212.339 168.531,213.810 157.224 C 214.166 154.487,214.737 151.708,215.079 151.047 C 216.227 148.828,217.600 141.960,217.600 138.435 C 217.601 136.739,218.708 131.205,219.166 130.613 C 219.341 130.386,219.609 129.750,219.761 129.200 C 219.912 128.650,220.315 127.210,220.654 126.000 C 221.028 124.670,221.297 121.926,221.335 119.061 L 221.398 114.323 220.199 113.363 C 218.791 112.237,218.774 112.235,218.016 113.088 M219.945 115.960 C 220.730 118.305,220.153 123.986,218.825 127.000 C 217.935 129.019,216.800 134.500,216.800 136.776 C 216.800 138.443,216.139 142.212,215.324 145.200 C 214.993 146.410,214.402 148.570,214.011 150.000 C 213.619 151.430,213.085 154.310,212.824 156.400 C 212.034 162.733,211.541 165.245,210.390 168.800 C 209.193 172.493,208.579 175.732,208.189 180.400 C 207.911 183.719,207.367 186.211,205.873 191.000 C 202.866 200.640,202.268 200.377,227.251 200.390 C 248.187 200.401,250.962 200.799,247.859 203.344 C 247.285 203.815,246.546 204.859,246.217 205.665 C 245.888 206.471,244.902 207.958,244.026 208.970 C 243.149 209.983,242.065 211.642,241.616 212.658 C 241.166 213.673,240.186 215.182,239.438 216.011 C 238.689 216.839,237.789 218.123,237.438 218.863 C 237.087 219.603,236.345 220.698,235.790 221.297 C 235.235 221.896,234.217 223.424,233.527 224.693 C 232.838 225.962,231.762 227.592,231.136 228.315 C 230.510 229.038,229.567 230.478,229.039 231.515 C 228.511 232.552,227.609 233.838,227.035 234.374 C 226.461 234.910,225.567 236.274,225.049 237.405 C 224.531 238.537,223.546 240.037,222.860 240.738 C 222.175 241.440,221.260 242.790,220.828 243.739 C 220.396 244.688,219.519 245.990,218.880 246.632 C 218.241 247.274,217.467 248.385,217.161 249.100 C 216.855 249.815,216.469 250.400,216.302 250.400 C 216.136 250.400,216.000 250.630,216.000 250.911 C 216.000 251.192,215.431 252.045,214.735 252.806 C 214.040 253.568,213.129 254.963,212.712 255.905 C 212.295 256.848,211.379 258.200,210.677 258.910 C 209.975 259.619,208.905 261.190,208.300 262.400 C 207.694 263.610,206.650 265.185,205.979 265.900 C 205.308 266.615,204.514 267.787,204.214 268.505 C 203.914 269.222,203.122 270.382,202.453 271.082 C 201.784 271.782,200.788 273.239,200.240 274.320 C 199.693 275.401,198.811 276.807,198.282 277.443 C 197.753 278.079,196.822 279.500,196.214 280.600 C 195.605 281.700,194.519 283.253,193.800 284.050 C 193.081 284.848,192.009 286.468,191.418 287.650 C 190.828 288.833,189.838 290.340,189.220 291.000 C 188.602 291.660,187.804 292.832,187.448 293.604 C 186.833 294.936,185.216 296.956,184.521 297.260 C 184.345 297.337,183.775 298.300,183.257 299.400 C 181.791 302.507,181.769 302.544,181.306 302.698 C 179.375 303.342,179.549 294.950,181.581 289.400 C 182.475 286.959,183.025 284.194,183.612 279.200 C 184.157 274.554,184.634 272.238,185.794 268.600 C 186.621 266.004,186.998 263.899,188.048 256.000 C 188.486 252.706,188.932 250.830,189.997 247.800 C 191.039 244.834,191.536 242.219,191.820 238.200 C 192.063 234.762,193.369 228.245,193.984 227.400 C 194.311 226.952,194.955 224.483,195.591 221.249 C 196.027 219.027,195.870 218.507,194.400 217.313 C 193.948 216.946,189.162 216.821,175.000 216.808 C 152.616 216.788,149.576 216.360,152.376 213.623 C 153.001 213.012,153.870 211.722,154.306 210.756 C 154.742 209.790,155.752 208.380,156.550 207.622 C 157.347 206.863,158.000 206.089,158.000 205.900 C 158.000 204.996,159.712 201.966,160.906 200.755 C 161.641 200.010,162.469 198.841,162.746 198.157 C 163.023 197.473,163.874 196.252,164.636 195.444 C 165.399 194.635,166.459 193.035,166.993 191.887 C 167.526 190.739,168.473 189.260,169.096 188.600 C 169.720 187.940,170.568 186.680,170.981 185.800 C 171.393 184.920,172.222 183.741,172.822 183.181 C 173.960 182.117,175.600 179.367,175.600 178.523 C 175.600 178.254,176.275 177.324,177.100 176.457 C 177.925 175.589,179.120 173.917,179.755 172.740 C 180.390 171.563,181.235 170.372,181.633 170.093 C 182.031 169.814,182.926 168.464,183.622 167.094 C 184.318 165.724,185.343 164.152,185.900 163.601 C 186.457 163.051,187.153 162.031,187.447 161.335 C 187.741 160.639,188.698 159.242,189.574 158.230 C 190.451 157.217,191.535 155.558,191.984 154.542 C 192.434 153.527,193.427 152.003,194.191 151.157 C 194.956 150.310,195.834 149.014,196.143 148.275 C 196.451 147.537,197.179 146.457,197.760 145.877 C 198.341 145.296,199.376 143.781,200.061 142.510 C 200.747 141.240,201.716 139.750,202.217 139.200 C 202.717 138.650,203.614 137.300,204.211 136.200 C 204.808 135.100,205.824 133.643,206.467 132.961 C 207.111 132.280,208.146 130.660,208.766 129.361 C 209.387 128.063,210.380 126.553,210.973 126.006 C 211.566 125.459,212.349 124.379,212.713 123.606 C 213.490 121.953,213.796 121.544,215.415 119.991 C 216.083 119.351,216.875 118.145,217.174 117.313 C 218.428 113.830,219.120 113.492,219.945 115.960 " stroke="none" fill="#bad244" fill-rule="evenodd"></path><path id="path3" d="M218.319 114.879 C 217.989 115.386,217.474 116.481,217.174 117.313 C 216.875 118.145,216.083 119.351,215.415 119.991 C 213.796 121.544,213.490 121.953,212.713 123.606 C 212.349 124.379,211.566 125.459,210.973 126.006 C 210.380 126.553,209.387 128.063,208.766 129.361 C 208.146 130.660,207.111 132.280,206.467 132.961 C 205.824 133.643,204.808 135.100,204.211 136.200 C 203.614 137.300,202.717 138.650,202.217 139.200 C 201.716 139.750,200.747 141.240,200.061 142.510 C 199.376 143.781,198.341 145.296,197.760 145.877 C 197.179 146.457,196.451 147.537,196.143 148.275 C 195.834 149.014,194.956 150.310,194.191 151.157 C 193.427 152.003,192.434 153.527,191.984 154.542 C 191.535 155.558,190.451 157.217,189.574 158.230 C 188.698 159.242,187.741 160.639,187.447 161.335 C 187.153 162.031,186.457 163.051,185.900 163.601 C 185.343 164.152,184.318 165.724,183.622 167.094 C 182.926 168.464,182.031 169.814,181.633 170.093 C 181.235 170.372,180.390 171.563,179.755 172.740 C 179.120 173.917,177.925 175.589,177.100 176.457 C 176.275 177.324,175.600 178.254,175.600 178.523 C 175.600 179.367,173.960 182.117,172.822 183.181 C 172.222 183.741,171.393 184.920,170.981 185.800 C 170.568 186.680,169.720 187.940,169.096 188.600 C 168.473 189.260,167.526 190.739,166.993 191.887 C 166.459 193.035,165.399 194.635,164.636 195.444 C 163.874 196.252,163.023 197.473,162.746 198.157 C 162.469 198.841,161.641 200.010,160.906 200.755 C 159.712 201.966,158.000 204.996,158.000 205.900 C 158.000 206.089,157.347 206.863,156.550 207.622 C 155.752 208.380,154.742 209.790,154.306 210.756 C 153.870 211.722,153.001 213.012,152.376 213.623 C 149.576 216.360,152.616 216.788,175.000 216.808 C 189.162 216.821,193.948 216.946,194.400 217.313 C 195.870 218.507,196.027 219.027,195.591 221.249 C 194.955 224.483,194.311 226.952,193.984 227.400 C 193.369 228.245,192.063 234.762,191.820 238.200 C 191.536 242.219,191.039 244.834,189.997 247.800 C 188.932 250.830,188.486 252.706,188.048 256.000 C 186.998 263.899,186.621 266.004,185.794 268.600 C 184.634 272.238,184.157 274.554,183.612 279.200 C 183.025 284.194,182.475 286.959,181.581 289.400 C 179.549 294.950,179.375 303.342,181.306 302.698 C 181.769 302.544,181.791 302.507,183.257 299.400 C 183.775 298.300,184.345 297.337,184.521 297.260 C 185.216 296.956,186.833 294.936,187.448 293.604 C 187.804 292.832,188.602 291.660,189.220 291.000 C 189.838 290.340,190.828 288.833,191.418 287.650 C 192.009 286.468,193.081 284.848,193.800 284.050 C 194.519 283.253,195.605 281.700,196.214 280.600 C 196.822 279.500,197.753 278.079,198.282 277.443 C 198.811 276.807,199.693 275.401,200.240 274.320 C 200.788 273.239,201.784 271.782,202.453 271.082 C 203.122 270.382,203.914 269.222,204.214 268.505 C 204.514 267.787,205.308 266.615,205.979 265.900 C 206.650 265.185,207.694 263.610,208.300 262.400 C 208.905 261.190,209.975 259.619,210.677 258.910 C 211.379 258.200,212.295 256.848,212.712 255.905 C 213.129 254.963,214.040 253.568,214.735 252.806 C 215.431 252.045,216.000 251.192,216.000 250.911 C 216.000 250.630,216.136 250.400,216.302 250.400 C 216.469 250.400,216.855 249.815,217.161 249.100 C 217.467 248.385,218.241 247.274,218.880 246.632 C 219.519 245.990,220.396 244.688,220.828 243.739 C 221.260 242.790,222.175 241.440,222.860 240.738 C 223.546 240.037,224.531 238.537,225.049 237.405 C 225.567 236.274,226.461 234.910,227.035 234.374 C 227.609 233.838,228.511 232.552,229.039 231.515 C 229.567 230.478,230.510 229.038,231.136 228.315 C 231.762 227.592,232.838 225.962,233.527 224.693 C 234.217 223.424,235.235 221.896,235.790 221.297 C 236.345 220.698,237.087 219.603,237.438 218.863 C 237.789 218.123,238.689 216.839,239.438 216.011 C 240.186 215.182,241.166 213.673,241.616 212.658 C 242.065 211.642,243.149 209.983,244.026 208.970 C 244.902 207.958,245.888 206.471,246.217 205.665 C 246.546 204.859,247.285 203.815,247.859 203.344 C 250.962 200.799,248.187 200.401,227.251 200.390 C 202.268 200.377,202.866 200.640,205.873 191.000 C 207.367 186.211,207.911 183.719,208.189 180.400 C 208.579 175.732,209.193 172.493,210.390 168.800 C 211.541 165.245,212.034 162.733,212.824 156.400 C 213.085 154.310,213.619 151.430,214.011 150.000 C 214.402 148.570,214.993 146.410,215.324 145.200 C 216.139 142.212,216.800 138.443,216.800 136.776 C 216.800 134.500,217.935 129.019,218.825 127.000 C 220.153 123.986,220.730 118.305,219.945 115.960 C 219.301 114.031,219.001 113.833,218.319 114.879 M219.200 119.080 C 219.200 120.178,219.084 120.444,218.749 120.109 C 218.495 119.855,218.411 119.211,218.557 118.629 C 218.925 117.164,219.200 117.356,219.200 119.080 M216.250 126.957 C 215.600 137.176,215.171 140.110,213.959 142.600 C 212.678 145.232,211.601 150.492,211.601 154.123 C 211.600 156.713,210.843 161.982,210.383 162.600 C 208.612 164.980,207.205 171.927,207.198 178.338 C 207.195 180.591,206.554 183.047,205.615 184.400 C 204.381 186.180,203.220 191.891,203.208 196.245 C 203.201 198.792,203.311 199.202,204.255 200.145 L 205.309 201.200 224.355 201.206 C 243.762 201.212,247.408 201.465,245.916 202.704 C 245.628 202.943,245.143 203.983,244.838 205.017 C 244.437 206.374,243.939 207.100,243.042 207.631 C 242.359 208.035,241.560 208.959,241.266 209.683 C 240.200 212.315,239.777 212.998,238.526 214.108 C 237.825 214.729,236.937 216.084,236.553 217.119 C 236.169 218.153,235.279 219.491,234.575 220.090 C 233.871 220.690,233.019 221.869,232.683 222.710 C 232.346 223.551,231.414 225.026,230.611 225.987 C 228.954 227.970,228.000 229.659,228.000 230.609 C 228.000 231.292,227.437 231.935,226.256 232.600 C 225.866 232.820,225.288 233.495,224.973 234.100 C 224.658 234.705,224.175 235.635,223.900 236.167 C 223.625 236.699,222.735 237.851,221.921 238.726 C 221.108 239.602,220.148 241.219,219.789 242.319 C 219.330 243.720,218.666 244.696,217.567 245.578 C 216.705 246.271,216.000 247.106,216.000 247.433 C 216.000 248.110,214.928 249.907,213.991 250.800 C 212.859 251.880,211.754 253.769,211.271 255.452 C 210.921 256.670,210.493 257.230,209.641 257.583 C 208.826 257.921,208.283 258.591,207.800 259.857 C 207.423 260.844,206.247 262.642,205.188 263.853 C 203.859 265.371,203.177 266.551,202.991 267.652 C 202.802 268.769,202.463 269.349,201.861 269.579 C 200.672 270.034,199.796 271.123,199.152 272.948 C 198.851 273.799,198.239 274.789,197.792 275.148 C 196.546 276.147,195.356 278.011,194.695 280.000 C 194.300 281.189,193.742 281.977,193.051 282.321 C 192.400 282.644,191.617 283.689,190.980 285.080 C 190.417 286.312,189.510 287.670,188.965 288.099 C 187.818 289.001,186.000 292.383,186.000 293.613 C 186.000 294.294,185.791 294.429,184.900 294.327 L 183.800 294.200 183.931 291.000 C 184.003 289.240,184.225 286.630,184.423 285.200 C 184.622 283.770,184.788 281.592,184.792 280.360 C 184.801 277.935,185.174 276.500,186.604 273.400 C 187.727 270.967,188.399 268.163,188.403 265.894 C 188.413 261.131,189.561 254.362,190.560 253.175 C 191.164 252.457,191.649 251.254,191.801 250.098 C 191.937 249.054,192.218 247.336,192.425 246.280 C 192.631 245.224,192.799 243.334,192.797 242.080 C 192.794 238.902,193.658 233.504,194.270 232.881 C 196.642 230.469,197.976 218.611,196.089 216.715 L 195.179 215.800 175.289 215.598 C 153.577 215.377,153.655 215.385,154.824 213.467 C 155.249 212.770,155.598 211.799,155.599 211.309 C 155.599 210.777,156.043 210.133,156.700 209.709 C 157.997 208.874,159.168 207.579,159.187 206.961 C 159.213 206.090,160.395 204.154,161.612 202.990 C 162.888 201.769,163.747 200.202,164.157 198.351 C 164.303 197.694,164.820 197.123,165.541 196.824 C 166.653 196.364,166.962 195.933,167.967 193.444 C 168.224 192.808,169.204 191.368,170.146 190.244 C 171.087 189.120,172.064 187.480,172.316 186.600 C 172.653 185.424,173.096 184.859,173.988 184.466 C 174.748 184.132,175.297 183.534,175.457 182.866 C 175.858 181.190,176.610 179.942,178.386 178.000 C 179.332 176.966,180.254 175.434,180.553 174.400 C 180.920 173.130,181.392 172.444,182.155 172.069 C 182.844 171.731,183.573 170.779,184.162 169.448 C 184.670 168.299,185.825 166.558,186.728 165.580 C 187.637 164.595,188.599 163.027,188.883 162.066 C 189.212 160.950,189.774 160.106,190.456 159.703 C 191.078 159.336,191.977 158.078,192.631 156.662 C 193.244 155.334,194.321 153.743,195.024 153.126 C 195.726 152.509,196.504 151.463,196.751 150.802 C 196.998 150.141,197.385 149.101,197.611 148.490 C 197.837 147.880,198.422 147.205,198.911 146.990 C 199.402 146.775,200.338 145.525,201.000 144.200 C 201.660 142.880,202.574 141.496,203.031 141.125 C 203.754 140.538,204.898 138.543,206.091 135.785 C 206.285 135.337,206.813 134.797,207.263 134.585 C 208.094 134.195,208.610 133.400,209.782 130.705 C 210.140 129.883,210.779 129.025,211.204 128.798 C 212.147 128.293,213.829 125.446,214.180 123.759 C 214.403 122.684,214.576 122.544,215.472 122.716 L 216.507 122.914 216.250 126.957 M181.743 298.683 C 181.350 300.249,180.665 298.724,181.026 297.085 C 181.298 295.846,181.320 295.834,181.653 296.733 C 181.843 297.246,181.884 298.124,181.743 298.683 " stroke="none" fill="#d4dc44" fill-rule="evenodd"></path><path id="path4" d="M221.891 110.000 C 221.331 110.440,220.506 110.800,220.056 110.800 C 217.906 110.800,216.368 112.008,215.633 114.273 C 215.334 115.193,214.324 116.757,213.388 117.747 C 212.236 118.967,211.526 120.178,211.187 121.502 C 210.794 123.032,210.436 123.566,209.534 123.965 C 208.402 124.466,207.200 126.202,207.200 127.335 C 207.200 127.652,206.388 128.734,205.396 129.741 C 203.511 131.652,202.800 132.989,202.800 134.621 C 202.800 135.346,202.455 135.733,201.427 136.163 C 200.108 136.714,198.800 138.499,198.800 139.746 C 198.800 140.069,198.248 140.842,197.574 141.466 C 195.970 142.949,194.400 145.615,194.400 146.855 C 194.400 147.947,193.736 148.800,192.884 148.800 C 192.190 148.800,190.831 150.389,190.813 151.220 C 190.790 152.296,189.828 153.952,189.118 154.137 C 188.106 154.402,186.000 157.959,186.000 159.404 C 186.000 160.437,185.758 160.767,184.593 161.323 C 183.800 161.701,182.992 162.475,182.743 163.097 C 181.804 165.438,181.414 166.051,179.786 167.750 C 178.499 169.094,178.041 169.935,177.829 171.344 C 177.592 172.927,177.363 173.275,176.196 173.829 C 175.180 174.311,174.663 174.942,174.141 176.336 C 173.750 177.381,172.705 178.903,171.763 179.800 C 170.191 181.296,169.208 183.408,169.202 185.300 C 169.201 185.719,168.896 186.000,168.444 186.000 C 167.216 186.000,166.124 187.259,165.407 189.500 C 165.038 190.655,164.598 191.600,164.429 191.600 C 163.337 191.600,160.800 195.720,160.800 197.495 C 160.800 198.094,160.473 198.408,159.666 198.586 C 158.586 198.823,157.200 200.807,157.200 202.115 C 157.200 202.383,156.316 203.539,155.236 204.684 C 154.065 205.924,153.164 207.297,153.006 208.083 C 152.537 210.411,152.429 210.592,151.196 211.138 C 149.043 212.091,148.148 215.002,149.509 216.623 C 150.963 218.354,151.530 218.400,171.719 218.404 C 182.323 218.407,191.676 218.521,192.502 218.657 L 194.004 218.905 193.063 219.846 C 191.666 221.243,190.904 224.942,190.393 232.800 C 189.961 239.450,189.889 239.847,188.944 240.739 C 187.146 242.438,186.607 245.032,186.013 254.852 C 185.684 260.294,185.591 260.773,184.677 261.686 C 183.197 263.167,182.538 266.259,182.014 274.200 C 181.585 280.699,181.452 281.497,180.650 282.400 C 178.815 284.466,178.000 287.999,178.000 293.890 C 178.000 298.507,177.383 302.684,176.404 304.688 C 175.255 307.041,176.836 308.504,178.742 306.851 C 179.217 306.439,180.286 305.993,181.118 305.860 C 182.952 305.566,184.351 304.347,184.667 302.764 C 184.796 302.118,185.502 300.916,186.236 300.094 C 186.969 299.273,187.732 298.409,187.931 298.175 C 188.723 297.242,189.200 295.993,189.200 294.853 C 189.200 294.022,189.436 293.579,189.967 293.410 C 191.251 293.003,192.800 291.585,192.800 290.817 C 192.800 289.732,193.639 288.391,195.472 286.543 C 196.604 285.402,197.197 284.404,197.377 283.335 C 197.698 281.437,197.886 281.161,199.383 280.394 C 200.198 279.977,200.770 279.219,201.221 277.959 C 201.581 276.953,202.614 275.368,203.517 274.438 C 204.631 273.290,205.362 272.047,205.791 270.573 C 206.138 269.378,206.653 268.400,206.936 268.400 C 207.862 268.400,209.162 266.828,209.609 265.166 C 209.903 264.073,210.416 263.324,211.163 262.895 C 212.463 262.149,213.920 259.604,214.265 257.477 C 214.446 256.364,214.738 255.930,215.424 255.758 C 216.631 255.455,217.318 254.596,218.143 252.359 C 218.544 251.270,219.187 250.352,219.720 250.109 C 220.710 249.658,222.800 245.881,222.800 244.543 C 222.800 243.977,223.204 243.530,224.019 243.192 C 225.259 242.678,226.075 241.487,226.555 239.486 C 226.702 238.874,227.222 238.190,227.711 237.967 C 228.772 237.483,230.272 235.299,230.623 233.728 C 231.146 231.384,231.305 231.122,232.450 230.723 C 233.578 230.329,234.800 228.646,234.800 227.483 C 234.800 227.178,235.585 226.096,236.545 225.080 C 238.259 223.265,238.894 222.101,239.379 219.883 C 239.514 219.268,239.933 218.657,240.312 218.523 C 241.397 218.141,242.800 216.724,242.800 216.010 C 242.800 214.914,243.760 213.212,244.515 212.968 C 245.488 212.653,246.992 210.197,247.585 207.957 C 247.973 206.490,248.331 206.000,249.336 205.557 C 251.746 204.495,252.039 201.053,249.852 199.493 C 248.604 198.603,248.530 198.599,227.733 198.400 C 207.776 198.209,205.284 198.056,206.941 197.129 C 208.627 196.186,209.394 192.577,209.976 182.858 C 210.307 177.322,210.425 176.658,211.174 176.133 C 213.059 174.813,213.828 171.127,214.194 161.651 C 214.409 156.085,214.448 155.877,215.438 155.099 C 217.247 153.676,217.778 151.131,218.356 141.134 C 218.676 135.601,218.753 135.211,219.715 134.249 C 221.274 132.690,221.887 129.721,222.411 121.200 C 222.674 116.910,223.050 113.340,223.245 113.267 C 223.440 113.193,223.600 112.876,223.600 112.561 C 223.600 112.247,223.812 111.650,224.070 111.236 C 224.447 110.633,224.413 110.356,223.899 109.842 C 223.096 109.038,223.115 109.037,221.891 110.000 M220.199 113.363 L 221.398 114.323 221.335 119.061 C 221.297 121.926,221.028 124.670,220.654 126.000 C 220.315 127.210,219.912 128.650,219.761 129.200 C 219.609 129.750,219.341 130.386,219.166 130.613 C 218.708 131.205,217.601 136.739,217.600 138.435 C 217.600 141.960,216.227 148.828,215.079 151.047 C 214.737 151.708,214.166 154.487,213.810 157.224 C 212.339 168.531,212.019 170.122,210.740 172.512 C 210.154 173.607,209.199 178.257,209.203 180.000 C 209.209 183.202,207.853 190.676,206.881 192.800 C 206.008 194.705,205.206 198.660,205.649 198.873 C 205.732 198.913,214.980 199.058,226.200 199.197 C 247.995 199.465,248.530 199.517,249.823 201.491 C 250.490 202.510,250.479 202.540,248.829 204.110 C 247.911 204.983,247.058 206.212,246.932 206.841 C 246.806 207.469,245.960 208.753,245.052 209.694 C 244.143 210.635,242.950 212.385,242.400 213.583 C 241.850 214.781,240.725 216.453,239.900 217.297 C 239.075 218.141,238.400 219.172,238.400 219.588 C 238.400 220.003,237.747 221.031,236.949 221.872 C 236.151 222.712,234.859 224.633,234.078 226.141 C 233.297 227.648,232.312 229.088,231.889 229.341 C 231.467 229.593,230.680 230.751,230.142 231.914 C 229.604 233.076,228.647 234.521,228.016 235.124 C 227.385 235.728,226.293 237.426,225.590 238.898 C 224.887 240.370,223.989 241.676,223.596 241.801 C 223.202 241.926,222.397 243.057,221.807 244.314 C 221.217 245.571,220.324 246.960,219.823 247.400 C 219.321 247.840,218.340 249.331,217.643 250.714 C 216.945 252.096,215.910 253.626,215.342 254.114 C 214.774 254.601,213.855 255.952,213.301 257.115 C 212.746 258.278,211.967 259.458,211.571 259.736 C 211.174 260.013,210.195 261.492,209.394 263.020 C 208.594 264.549,207.418 266.270,206.780 266.844 C 206.141 267.419,205.273 268.696,204.850 269.684 C 204.427 270.671,203.652 271.821,203.128 272.239 C 202.604 272.658,201.686 274.038,201.089 275.307 C 200.492 276.576,199.309 278.376,198.460 279.307 C 197.612 280.238,196.804 281.469,196.665 282.043 C 196.527 282.617,195.645 283.897,194.707 284.888 C 193.768 285.879,192.653 287.569,192.228 288.645 C 191.517 290.446,190.293 292.000,189.585 292.000 C 189.424 292.000,188.886 293.003,188.388 294.229 C 187.891 295.455,187.053 296.740,186.527 297.085 C 186.001 297.429,185.002 298.901,184.308 300.356 C 179.796 309.802,176.712 300.666,180.272 288.400 C 180.623 287.190,181.035 286.020,181.188 285.800 C 181.653 285.130,182.357 281.227,182.810 276.800 C 183.336 271.660,183.919 268.743,184.876 266.460 C 185.758 264.358,186.799 259.541,186.800 257.565 C 186.800 253.960,188.527 245.651,189.576 244.200 C 189.736 243.980,190.069 242.810,190.317 241.600 C 190.722 239.621,190.977 237.625,191.818 229.839 C 192.063 227.572,192.240 226.958,193.464 224.123 C 196.303 217.551,197.177 217.836,173.486 217.600 C 152.051 217.387,150.977 217.281,150.222 215.313 C 149.946 214.595,150.955 212.869,151.852 212.525 C 152.185 212.397,152.870 211.371,153.373 210.246 C 153.877 209.121,154.844 207.627,155.522 206.927 C 156.577 205.838,158.400 202.584,158.400 201.791 C 158.400 201.651,159.078 200.876,159.907 200.069 C 160.735 199.261,161.758 197.824,162.178 196.876 C 162.599 195.928,163.451 194.791,164.071 194.349 C 164.692 193.907,165.200 193.320,165.200 193.044 C 165.200 192.175,167.631 188.012,168.369 187.617 C 168.757 187.409,169.585 186.163,170.210 184.848 C 170.834 183.533,171.730 182.251,172.201 182.000 C 172.672 181.748,173.667 180.205,174.413 178.571 C 175.160 176.937,175.904 175.600,176.067 175.600 C 176.679 175.600,178.402 173.531,178.659 172.486 C 179.035 170.959,179.938 169.673,180.836 169.389 C 181.256 169.255,181.600 168.906,181.600 168.614 C 181.600 167.633,183.991 163.522,185.042 162.696 C 185.613 162.246,186.424 161.076,186.845 160.096 C 187.265 159.115,188.111 157.837,188.724 157.256 C 189.337 156.675,190.408 155.010,191.105 153.556 C 191.801 152.101,192.800 150.630,193.324 150.287 C 193.848 149.943,194.744 148.676,195.315 147.470 C 195.885 146.265,196.697 145.036,197.118 144.739 C 197.539 144.443,198.457 143.008,199.159 141.551 C 199.861 140.093,200.967 138.427,201.618 137.847 C 202.269 137.267,203.234 135.897,203.761 134.804 C 204.289 133.710,205.278 132.346,205.960 131.772 C 206.642 131.198,207.200 130.570,207.200 130.375 C 207.200 129.451,209.363 125.602,209.996 125.401 C 210.389 125.276,211.269 124.007,211.950 122.581 C 212.744 120.918,213.549 119.824,214.194 119.530 C 214.747 119.278,215.200 118.841,215.200 118.560 C 215.200 117.471,218.136 112.461,218.800 112.417 C 218.910 112.410,219.540 112.836,220.199 113.363 " stroke="none" fill="#a4cc4c" fill-rule="evenodd"></path></g></svg>